<?xml version="1.0" encoding="UTF-8" standalone="no"?>
<!DOCTYPE svg PUBLIC "-//W3C//DTD SVG 1.1//EN" "http://www.w3.org/Graphics/SVG/1.1/DTD/svg11.dtd">
<svg width="100%" height="100%" viewBox="0 0 4681 855" version="1.1" xmlns="http://www.w3.org/2000/svg" xmlns:xlink="http://www.w3.org/1999/xlink" xml:space="preserve" xmlns:serif="http://www.serif.com/" style="fill-rule:evenodd;clip-rule:evenodd;stroke-linecap:round;stroke-linejoin:round;stroke-miterlimit:1.5;">
    <g transform="matrix(1,0,0,1,-2760,-49)">
        <g id="Title" transform="matrix(1.28829,0,0,0.657464,-796.628,16.1315)">
            <rect x="2760.73" y="49.993" width="3632.76" height="1300.03" style="fill:rgb(13,28,54);"/>
            <g transform="matrix(0.776221,0,0,1.521,634.171,-48.2834)">
                <g transform="matrix(707.322,0,0,707.322,2851.93,722.628)">
                    <path d="M0,-0.7L0.561,-0.7L0.561,-0.565L0.358,-0.565L0.358,-0L0.203,-0L0.203,-0.565L0,-0.565L0,-0.7Z" style="fill:rgb(7,16,31);fill-rule:nonzero;"/>
                </g>
                <g transform="matrix(707.322,0,0,707.322,3248.74,722.628)">
                    <path d="M0.39,-0.395L0.235,-0.395C0.216,-0.395 0.206,-0.386 0.205,-0.369L0.205,-0L0.06,-0L0.06,-0.52L0.17,-0.52L0.191,-0.469C0.205,-0.485 0.222,-0.498 0.243,-0.506C0.263,-0.516 0.286,-0.52 0.311,-0.52L0.39,-0.52L0.39,-0.395Z" style="fill:rgb(7,16,31);fill-rule:nonzero;"/>
                </g>
                <g transform="matrix(707.322,0,0,707.322,3524.59,722.628)">
                    <path d="M0.385,-0L0.363,-0.05C0.335,-0.017 0.295,-0 0.244,-0L0.197,-0C0.15,-0 0.112,-0.014 0.083,-0.043C0.054,-0.072 0.04,-0.11 0.04,-0.157L0.04,-0.158C0.04,-0.205 0.054,-0.243 0.083,-0.272C0.112,-0.301 0.15,-0.315 0.197,-0.315L0.244,-0.315C0.265,-0.315 0.285,-0.312 0.303,-0.305C0.321,-0.298 0.337,-0.289 0.35,-0.278L0.35,-0.365C0.35,-0.385 0.34,-0.395 0.32,-0.395L0.24,-0.395C0.22,-0.395 0.21,-0.385 0.21,-0.365L0.21,-0.345L0.065,-0.345L0.065,-0.363C0.065,-0.41 0.079,-0.448 0.108,-0.477C0.137,-0.506 0.175,-0.52 0.222,-0.52L0.339,-0.52C0.386,-0.52 0.423,-0.506 0.452,-0.477C0.481,-0.448 0.495,-0.41 0.495,-0.363L0.495,-0L0.385,-0ZM0.32,-0.125C0.34,-0.125 0.35,-0.135 0.35,-0.155L0.35,-0.174C0.348,-0.191 0.338,-0.2 0.32,-0.2L0.215,-0.2C0.195,-0.2 0.185,-0.19 0.185,-0.17L0.185,-0.155C0.185,-0.135 0.195,-0.125 0.215,-0.125L0.32,-0.125Z" style="fill:rgb(7,16,31);fill-rule:nonzero;"/>
                </g>
                <g transform="matrix(707.322,0,0,707.322,3917.16,722.628)">
                    <path d="M0.06,-0.52L0.205,-0.52L0.205,-0L0.06,-0L0.06,-0.52ZM0.06,-0.74L0.205,-0.74L0.205,-0.595L0.06,-0.595L0.06,-0.74Z" style="fill:rgb(7,16,31);fill-rule:nonzero;"/>
                </g>
                <g transform="matrix(707.322,0,0,707.322,4104.6,722.628)">
                    <rect x="0.06" y="-0.74" width="0.145" height="0.74" style="fill:rgb(7,16,31);fill-rule:nonzero;"/>
                </g>
                <g transform="matrix(707.322,0,0,707.322,4292.04,722.628)">
                    <path d="M0.463,-0.45L0.463,-0.535C0.463,-0.555 0.453,-0.565 0.433,-0.565L0.245,-0.565C0.225,-0.565 0.215,-0.555 0.215,-0.535L0.215,-0.165C0.215,-0.145 0.225,-0.135 0.245,-0.135L0.433,-0.135C0.453,-0.135 0.463,-0.145 0.463,-0.165L0.463,-0.25L0.618,-0.25L0.618,-0.157C0.618,-0.11 0.604,-0.072 0.575,-0.043C0.546,-0.014 0.508,-0 0.461,-0L0.216,-0C0.169,-0 0.132,-0.014 0.103,-0.043C0.074,-0.072 0.06,-0.11 0.06,-0.157L0.06,-0.543C0.06,-0.59 0.074,-0.628 0.103,-0.657C0.132,-0.686 0.169,-0.7 0.216,-0.7L0.461,-0.7C0.508,-0.7 0.546,-0.686 0.575,-0.657C0.604,-0.628 0.618,-0.59 0.618,-0.543L0.618,-0.45L0.463,-0.45Z" style="fill:rgb(7,16,31);fill-rule:nonzero;"/>
                </g>
                <g transform="matrix(707.322,0,0,707.322,5195.99,722.628)">
                    <path d="M0.34,-0L0.34,-0.365C0.34,-0.385 0.33,-0.395 0.31,-0.395L0.235,-0.395C0.216,-0.395 0.206,-0.386 0.205,-0.369L0.205,-0L0.06,-0L0.06,-0.52L0.17,-0.52L0.191,-0.469C0.205,-0.485 0.222,-0.498 0.243,-0.506C0.263,-0.516 0.286,-0.52 0.311,-0.52L0.328,-0.52C0.357,-0.52 0.382,-0.515 0.404,-0.503C0.426,-0.493 0.444,-0.477 0.457,-0.458C0.47,-0.477 0.488,-0.493 0.51,-0.503C0.533,-0.515 0.558,-0.52 0.586,-0.52L0.608,-0.52C0.655,-0.52 0.693,-0.506 0.722,-0.477C0.751,-0.448 0.765,-0.41 0.765,-0.363L0.765,-0L0.62,-0L0.62,-0.365C0.62,-0.385 0.61,-0.395 0.59,-0.395L0.515,-0.395C0.495,-0.395 0.485,-0.385 0.485,-0.365L0.485,-0L0.34,-0Z" style="fill:rgb(7,16,31);fill-rule:nonzero;"/>
                </g>
                <g transform="matrix(707.322,0,0,707.322,5779.53,722.628)">
                    <path d="M0.06,-0.52L0.17,-0.52L0.191,-0.469C0.205,-0.485 0.222,-0.498 0.243,-0.506C0.263,-0.516 0.286,-0.52 0.311,-0.52L0.358,-0.52C0.405,-0.52 0.443,-0.506 0.472,-0.477C0.501,-0.448 0.515,-0.41 0.515,-0.363L0.515,-0.157C0.515,-0.11 0.501,-0.072 0.472,-0.043C0.443,-0.014 0.405,-0 0.358,-0L0.311,-0C0.268,-0 0.233,-0.012 0.205,-0.037L0.205,0.2L0.06,0.2L0.06,-0.52ZM0.37,-0.365C0.37,-0.385 0.36,-0.395 0.34,-0.395L0.235,-0.395C0.216,-0.395 0.206,-0.386 0.205,-0.369L0.205,-0.155C0.205,-0.135 0.215,-0.125 0.235,-0.125L0.34,-0.125C0.36,-0.125 0.37,-0.135 0.37,-0.155L0.37,-0.365Z" style="fill:rgb(7,16,31);fill-rule:nonzero;"/>
                </g>
                <g transform="matrix(707.322,0,0,707.322,6179.17,722.628)">
                    <path d="M0.385,-0L0.363,-0.05C0.335,-0.017 0.295,-0 0.244,-0L0.197,-0C0.15,-0 0.112,-0.014 0.083,-0.043C0.054,-0.072 0.04,-0.11 0.04,-0.157L0.04,-0.158C0.04,-0.205 0.054,-0.243 0.083,-0.272C0.112,-0.301 0.15,-0.315 0.197,-0.315L0.244,-0.315C0.265,-0.315 0.285,-0.312 0.303,-0.305C0.321,-0.298 0.337,-0.289 0.35,-0.278L0.35,-0.365C0.35,-0.385 0.34,-0.395 0.32,-0.395L0.24,-0.395C0.22,-0.395 0.21,-0.385 0.21,-0.365L0.21,-0.345L0.065,-0.345L0.065,-0.363C0.065,-0.41 0.079,-0.448 0.108,-0.477C0.137,-0.506 0.175,-0.52 0.222,-0.52L0.339,-0.52C0.386,-0.52 0.423,-0.506 0.452,-0.477C0.481,-0.448 0.495,-0.41 0.495,-0.363L0.495,-0L0.385,-0ZM0.32,-0.125C0.34,-0.125 0.35,-0.135 0.35,-0.155L0.35,-0.174C0.348,-0.191 0.338,-0.2 0.32,-0.2L0.215,-0.2C0.195,-0.2 0.185,-0.19 0.185,-0.17L0.185,-0.155C0.185,-0.135 0.195,-0.125 0.215,-0.125L0.32,-0.125Z" style="fill:rgb(7,16,31);fill-rule:nonzero;"/>
                </g>
                <g transform="matrix(707.322,0,0,707.322,6571.74,722.628)">
                    <path d="M0.349,-0.318C0.396,-0.318 0.433,-0.304 0.462,-0.275C0.491,-0.246 0.505,-0.208 0.505,-0.161L0.505,-0.157C0.505,-0.11 0.491,-0.072 0.462,-0.043C0.433,-0.014 0.396,-0 0.349,-0L0.207,-0C0.16,-0 0.122,-0.014 0.093,-0.043C0.064,-0.072 0.05,-0.11 0.05,-0.157L0.05,-0.175L0.195,-0.175L0.195,-0.155C0.195,-0.135 0.205,-0.125 0.225,-0.125L0.33,-0.125C0.35,-0.125 0.36,-0.135 0.36,-0.156L0.36,-0.172C0.36,-0.193 0.35,-0.203 0.33,-0.203L0.211,-0.203C0.164,-0.203 0.127,-0.217 0.098,-0.246C0.069,-0.275 0.055,-0.313 0.055,-0.36L0.055,-0.363C0.055,-0.41 0.069,-0.448 0.098,-0.477C0.127,-0.506 0.164,-0.52 0.211,-0.52L0.343,-0.52C0.39,-0.52 0.428,-0.506 0.457,-0.477C0.486,-0.448 0.5,-0.41 0.5,-0.363L0.5,-0.345L0.355,-0.345L0.355,-0.365C0.355,-0.385 0.345,-0.395 0.325,-0.395L0.23,-0.395C0.21,-0.395 0.2,-0.385 0.2,-0.365L0.2,-0.348C0.2,-0.328 0.21,-0.318 0.23,-0.318L0.349,-0.318Z" style="fill:rgb(7,16,31);fill-rule:nonzero;"/>
                </g>
                <g transform="matrix(707.322,0,0,707.322,6964.3,722.628)">
                    <path d="M0.349,-0.318C0.396,-0.318 0.433,-0.304 0.462,-0.275C0.491,-0.246 0.505,-0.208 0.505,-0.161L0.505,-0.157C0.505,-0.11 0.491,-0.072 0.462,-0.043C0.433,-0.014 0.396,-0 0.349,-0L0.207,-0C0.16,-0 0.122,-0.014 0.093,-0.043C0.064,-0.072 0.05,-0.11 0.05,-0.157L0.05,-0.175L0.195,-0.175L0.195,-0.155C0.195,-0.135 0.205,-0.125 0.225,-0.125L0.33,-0.125C0.35,-0.125 0.36,-0.135 0.36,-0.156L0.36,-0.172C0.36,-0.193 0.35,-0.203 0.33,-0.203L0.211,-0.203C0.164,-0.203 0.127,-0.217 0.098,-0.246C0.069,-0.275 0.055,-0.313 0.055,-0.36L0.055,-0.363C0.055,-0.41 0.069,-0.448 0.098,-0.477C0.127,-0.506 0.164,-0.52 0.211,-0.52L0.343,-0.52C0.39,-0.52 0.428,-0.506 0.457,-0.477C0.486,-0.448 0.5,-0.41 0.5,-0.363L0.5,-0.345L0.355,-0.345L0.355,-0.365C0.355,-0.385 0.345,-0.395 0.325,-0.395L0.23,-0.395C0.21,-0.395 0.2,-0.385 0.2,-0.365L0.2,-0.348C0.2,-0.328 0.21,-0.318 0.23,-0.318L0.349,-0.318Z" style="fill:rgb(7,16,31);fill-rule:nonzero;"/>
                </g>
            </g>
            <g transform="matrix(0.776221,0,0,1.521,627.961,-60.4513)">
                <g transform="matrix(707.322,0,0,707.322,2851.93,722.628)">
                    <path d="M0,-0.7L0.561,-0.7L0.561,-0.565L0.358,-0.565L0.358,-0L0.203,-0L0.203,-0.565L0,-0.565L0,-0.7Z" style="fill:white;fill-rule:nonzero;"/>
                </g>
                <g transform="matrix(707.322,0,0,707.322,3248.74,722.628)">
                    <path d="M0.39,-0.395L0.235,-0.395C0.216,-0.395 0.206,-0.386 0.205,-0.369L0.205,-0L0.06,-0L0.06,-0.52L0.17,-0.52L0.191,-0.469C0.205,-0.485 0.222,-0.498 0.243,-0.506C0.263,-0.516 0.286,-0.52 0.311,-0.52L0.39,-0.52L0.39,-0.395Z" style="fill:white;fill-rule:nonzero;"/>
                </g>
                <g transform="matrix(707.322,0,0,707.322,3524.59,722.628)">
                    <path d="M0.385,-0L0.363,-0.05C0.335,-0.017 0.295,-0 0.244,-0L0.197,-0C0.15,-0 0.112,-0.014 0.083,-0.043C0.054,-0.072 0.04,-0.11 0.04,-0.157L0.04,-0.158C0.04,-0.205 0.054,-0.243 0.083,-0.272C0.112,-0.301 0.15,-0.315 0.197,-0.315L0.244,-0.315C0.265,-0.315 0.285,-0.312 0.303,-0.305C0.321,-0.298 0.337,-0.289 0.35,-0.278L0.35,-0.365C0.35,-0.385 0.34,-0.395 0.32,-0.395L0.24,-0.395C0.22,-0.395 0.21,-0.385 0.21,-0.365L0.21,-0.345L0.065,-0.345L0.065,-0.363C0.065,-0.41 0.079,-0.448 0.108,-0.477C0.137,-0.506 0.175,-0.52 0.222,-0.52L0.339,-0.52C0.386,-0.52 0.423,-0.506 0.452,-0.477C0.481,-0.448 0.495,-0.41 0.495,-0.363L0.495,-0L0.385,-0ZM0.32,-0.125C0.34,-0.125 0.35,-0.135 0.35,-0.155L0.35,-0.174C0.348,-0.191 0.338,-0.2 0.32,-0.2L0.215,-0.2C0.195,-0.2 0.185,-0.19 0.185,-0.17L0.185,-0.155C0.185,-0.135 0.195,-0.125 0.215,-0.125L0.32,-0.125Z" style="fill:white;fill-rule:nonzero;"/>
                </g>
                <g transform="matrix(707.322,0,0,707.322,3917.16,722.628)">
                    <path d="M0.06,-0.52L0.205,-0.52L0.205,-0L0.06,-0L0.06,-0.52ZM0.06,-0.74L0.205,-0.74L0.205,-0.595L0.06,-0.595L0.06,-0.74Z" style="fill:white;fill-rule:nonzero;"/>
                </g>
                <g transform="matrix(707.322,0,0,707.322,4104.6,722.628)">
                    <rect x="0.06" y="-0.74" width="0.145" height="0.74" style="fill:white;fill-rule:nonzero;"/>
                </g>
                <g transform="matrix(707.322,0,0,707.322,4292.04,722.628)">
                    <path d="M0.463,-0.45L0.463,-0.535C0.463,-0.555 0.453,-0.565 0.433,-0.565L0.245,-0.565C0.225,-0.565 0.215,-0.555 0.215,-0.535L0.215,-0.165C0.215,-0.145 0.225,-0.135 0.245,-0.135L0.433,-0.135C0.453,-0.135 0.463,-0.145 0.463,-0.165L0.463,-0.25L0.618,-0.25L0.618,-0.157C0.618,-0.11 0.604,-0.072 0.575,-0.043C0.546,-0.014 0.508,-0 0.461,-0L0.216,-0C0.169,-0 0.132,-0.014 0.103,-0.043C0.074,-0.072 0.06,-0.11 0.06,-0.157L0.06,-0.543C0.06,-0.59 0.074,-0.628 0.103,-0.657C0.132,-0.686 0.169,-0.7 0.216,-0.7L0.461,-0.7C0.508,-0.7 0.546,-0.686 0.575,-0.657C0.604,-0.628 0.618,-0.59 0.618,-0.543L0.618,-0.45L0.463,-0.45Z" style="fill:white;fill-rule:nonzero;"/>
                </g>
                <g transform="matrix(707.322,0,0,707.322,5195.99,722.628)">
                    <path d="M0.34,-0L0.34,-0.365C0.34,-0.385 0.33,-0.395 0.31,-0.395L0.235,-0.395C0.216,-0.395 0.206,-0.386 0.205,-0.369L0.205,-0L0.06,-0L0.06,-0.52L0.17,-0.52L0.191,-0.469C0.205,-0.485 0.222,-0.498 0.243,-0.506C0.263,-0.516 0.286,-0.52 0.311,-0.52L0.328,-0.52C0.357,-0.52 0.382,-0.515 0.404,-0.503C0.426,-0.493 0.444,-0.477 0.457,-0.458C0.47,-0.477 0.488,-0.493 0.51,-0.503C0.533,-0.515 0.558,-0.52 0.586,-0.52L0.608,-0.52C0.655,-0.52 0.693,-0.506 0.722,-0.477C0.751,-0.448 0.765,-0.41 0.765,-0.363L0.765,-0L0.62,-0L0.62,-0.365C0.62,-0.385 0.61,-0.395 0.59,-0.395L0.515,-0.395C0.495,-0.395 0.485,-0.385 0.485,-0.365L0.485,-0L0.34,-0Z" style="fill:white;fill-rule:nonzero;"/>
                </g>
                <g transform="matrix(707.322,0,0,707.322,5779.53,722.628)">
                    <path d="M0.06,-0.52L0.17,-0.52L0.191,-0.469C0.205,-0.485 0.222,-0.498 0.243,-0.506C0.263,-0.516 0.286,-0.52 0.311,-0.52L0.358,-0.52C0.405,-0.52 0.443,-0.506 0.472,-0.477C0.501,-0.448 0.515,-0.41 0.515,-0.363L0.515,-0.157C0.515,-0.11 0.501,-0.072 0.472,-0.043C0.443,-0.014 0.405,-0 0.358,-0L0.311,-0C0.268,-0 0.233,-0.012 0.205,-0.037L0.205,0.2L0.06,0.2L0.06,-0.52ZM0.37,-0.365C0.37,-0.385 0.36,-0.395 0.34,-0.395L0.235,-0.395C0.216,-0.395 0.206,-0.386 0.205,-0.369L0.205,-0.155C0.205,-0.135 0.215,-0.125 0.235,-0.125L0.34,-0.125C0.36,-0.125 0.37,-0.135 0.37,-0.155L0.37,-0.365Z" style="fill:white;fill-rule:nonzero;"/>
                </g>
                <g transform="matrix(707.322,0,0,707.322,6179.17,722.628)">
                    <path d="M0.385,-0L0.363,-0.05C0.335,-0.017 0.295,-0 0.244,-0L0.197,-0C0.15,-0 0.112,-0.014 0.083,-0.043C0.054,-0.072 0.04,-0.11 0.04,-0.157L0.04,-0.158C0.04,-0.205 0.054,-0.243 0.083,-0.272C0.112,-0.301 0.15,-0.315 0.197,-0.315L0.244,-0.315C0.265,-0.315 0.285,-0.312 0.303,-0.305C0.321,-0.298 0.337,-0.289 0.35,-0.278L0.35,-0.365C0.35,-0.385 0.34,-0.395 0.32,-0.395L0.24,-0.395C0.22,-0.395 0.21,-0.385 0.21,-0.365L0.21,-0.345L0.065,-0.345L0.065,-0.363C0.065,-0.41 0.079,-0.448 0.108,-0.477C0.137,-0.506 0.175,-0.52 0.222,-0.52L0.339,-0.52C0.386,-0.52 0.423,-0.506 0.452,-0.477C0.481,-0.448 0.495,-0.41 0.495,-0.363L0.495,-0L0.385,-0ZM0.32,-0.125C0.34,-0.125 0.35,-0.135 0.35,-0.155L0.35,-0.174C0.348,-0.191 0.338,-0.2 0.32,-0.2L0.215,-0.2C0.195,-0.2 0.185,-0.19 0.185,-0.17L0.185,-0.155C0.185,-0.135 0.195,-0.125 0.215,-0.125L0.32,-0.125Z" style="fill:white;fill-rule:nonzero;"/>
                </g>
                <g transform="matrix(707.322,0,0,707.322,6571.74,722.628)">
                    <path d="M0.349,-0.318C0.396,-0.318 0.433,-0.304 0.462,-0.275C0.491,-0.246 0.505,-0.208 0.505,-0.161L0.505,-0.157C0.505,-0.11 0.491,-0.072 0.462,-0.043C0.433,-0.014 0.396,-0 0.349,-0L0.207,-0C0.16,-0 0.122,-0.014 0.093,-0.043C0.064,-0.072 0.05,-0.11 0.05,-0.157L0.05,-0.175L0.195,-0.175L0.195,-0.155C0.195,-0.135 0.205,-0.125 0.225,-0.125L0.33,-0.125C0.35,-0.125 0.36,-0.135 0.36,-0.156L0.36,-0.172C0.36,-0.193 0.35,-0.203 0.33,-0.203L0.211,-0.203C0.164,-0.203 0.127,-0.217 0.098,-0.246C0.069,-0.275 0.055,-0.313 0.055,-0.36L0.055,-0.363C0.055,-0.41 0.069,-0.448 0.098,-0.477C0.127,-0.506 0.164,-0.52 0.211,-0.52L0.343,-0.52C0.39,-0.52 0.428,-0.506 0.457,-0.477C0.486,-0.448 0.5,-0.41 0.5,-0.363L0.5,-0.345L0.355,-0.345L0.355,-0.365C0.355,-0.385 0.345,-0.395 0.325,-0.395L0.23,-0.395C0.21,-0.395 0.2,-0.385 0.2,-0.365L0.2,-0.348C0.2,-0.328 0.21,-0.318 0.23,-0.318L0.349,-0.318Z" style="fill:white;fill-rule:nonzero;"/>
                </g>
                <g transform="matrix(707.322,0,0,707.322,6964.3,722.628)">
                    <path d="M0.349,-0.318C0.396,-0.318 0.433,-0.304 0.462,-0.275C0.491,-0.246 0.505,-0.208 0.505,-0.161L0.505,-0.157C0.505,-0.11 0.491,-0.072 0.462,-0.043C0.433,-0.014 0.396,-0 0.349,-0L0.207,-0C0.16,-0 0.122,-0.014 0.093,-0.043C0.064,-0.072 0.05,-0.11 0.05,-0.157L0.05,-0.175L0.195,-0.175L0.195,-0.155C0.195,-0.135 0.205,-0.125 0.225,-0.125L0.33,-0.125C0.35,-0.125 0.36,-0.135 0.36,-0.156L0.36,-0.172C0.36,-0.193 0.35,-0.203 0.33,-0.203L0.211,-0.203C0.164,-0.203 0.127,-0.217 0.098,-0.246C0.069,-0.275 0.055,-0.313 0.055,-0.36L0.055,-0.363C0.055,-0.41 0.069,-0.448 0.098,-0.477C0.127,-0.506 0.164,-0.52 0.211,-0.52L0.343,-0.52C0.39,-0.52 0.428,-0.506 0.457,-0.477C0.486,-0.448 0.5,-0.41 0.5,-0.363L0.5,-0.345L0.355,-0.345L0.355,-0.365C0.355,-0.385 0.345,-0.395 0.325,-0.395L0.23,-0.395C0.21,-0.395 0.2,-0.385 0.2,-0.365L0.2,-0.348C0.2,-0.328 0.21,-0.318 0.23,-0.318L0.349,-0.318Z" style="fill:white;fill-rule:nonzero;"/>
                </g>
            </g>
            <g transform="matrix(1,0,0,1,6.44716,-3.81679)">
                <g transform="matrix(0.285824,0,0,0.56007,4359.51,491.857)">
                    <circle cx="500" cy="500" r="500" style="fill:none;stroke:rgb(7,16,31);stroke-width:151.63px;"/>
                </g>
                <g transform="matrix(0.133394,0.261385,-0.183063,0.358709,4567.16,375.671)">
                    <path d="M515.253,287.802L648.945,729.119L515.253,1170.43L381.562,729.119L515.253,287.802Z" style="fill:rgb(7,16,31);"/>
                </g>
            </g>
            <g transform="matrix(0.409133,0,0,0.409133,3214.38,424.308)">
                <g transform="matrix(0.69861,0,0,1.36892,2799.51,126.032)">
                    <circle cx="500" cy="500" r="500" style="fill:none;stroke:white;stroke-width:152.14px;"/>
                </g>
                <g transform="matrix(0.326041,0.638874,-0.447441,0.876755,3307.05,-157.949)">
                    <path d="M515.253,287.802L648.945,729.119L515.253,1170.43L381.562,729.119L515.253,287.802Z" style="fill:rgb(236,241,252);"/>
                </g>
                <g transform="matrix(0.776221,0,0,1.521,2760.73,49.9929)">
                    <path d="M754.352,245.61L556.117,556.155L499.962,500L754.352,245.61Z" style="fill:rgb(231,29,29);"/>
                </g>
                <g transform="matrix(-4.30889e-17,-1.521,-0.776221,8.44323e-17,3536.92,1570.93)">
                    <path d="M754.352,245.61L556.117,556.155L499.962,500L754.352,245.61Z" style="fill:rgb(253,235,235);"/>
                </g>
                <g transform="matrix(0.776221,0,0,1.521,2464.54,463.058)">
                    <path d="M627.157,482.814L881.585,228.424L825.391,172.269L627.157,482.814Z" style="fill:rgb(32,88,221);"/>
                </g>
            </g>
        </g>
    </g>
</svg>
