<?xml version="1.0" encoding="UTF-8" standalone="no"?>
<!DOCTYPE svg PUBLIC "-//W3C//DTD SVG 1.1//EN" "http://www.w3.org/Graphics/SVG/1.1/DTD/svg11.dtd">
<svg width="100%" height="100%" viewBox="0 0 4681 855" version="1.1" xmlns="http://www.w3.org/2000/svg" xmlns:xlink="http://www.w3.org/1999/xlink" xml:space="preserve" xmlns:serif="http://www.serif.com/" style="fill-rule:evenodd;clip-rule:evenodd;stroke-linecap:round;stroke-linejoin:round;stroke-miterlimit:1.5;">
    <g transform="matrix(1,0,0,1,-2760,-49)">
        <g id="Title" transform="matrix(1.28829,0,0,0.657464,-796.628,16.1315)">
            <rect x="2760.73" y="49.993" width="3632.76" height="1300.03" style="fill:rgb(13,28,54);"/>
            <g transform="matrix(0.776221,0,0,1.521,634.171,-48.2834)">
                <text x="2851.93px" y="722.628px" style="font-family:'Purista-Bold', 'Purista';font-weight:700;font-size:707.322px;fill:rgb(7,16,31);">TrailC  mpass</text>
            </g>
            <g transform="matrix(0.776221,0,0,1.521,627.961,-60.4513)">
                <text x="2851.93px" y="722.628px" style="font-family:'Purista-Bold', 'Purista';font-weight:700;font-size:707.322px;fill:white;">TrailC  mpass</text>
            </g>
            <g transform="matrix(1,0,0,1,6.44716,-3.81679)">
                <g transform="matrix(0.285824,0,0,0.56007,4359.51,491.857)">
                    <circle cx="500" cy="500" r="500" style="fill:none;stroke:rgb(7,16,31);stroke-width:151.63px;"/>
                </g>
                <g transform="matrix(0.133394,0.261385,-0.183063,0.358709,4567.16,375.671)">
                    <path d="M515.253,287.802L648.945,729.119L515.253,1170.43L381.562,729.119L515.253,287.802Z" style="fill:rgb(7,16,31);"/>
                </g>
            </g>
            <g transform="matrix(0.409133,0,0,0.409133,3214.38,424.308)">
                <g transform="matrix(0.69861,0,0,1.36892,2799.51,126.032)">
                    <circle cx="500" cy="500" r="500" style="fill:none;stroke:white;stroke-width:152.14px;"/>
                </g>
                <g transform="matrix(0.326041,0.638874,-0.447441,0.876755,3307.05,-157.949)">
                    <path d="M515.253,287.802L648.945,729.119L515.253,1170.43L381.562,729.119L515.253,287.802Z" style="fill:rgb(236,241,252);"/>
                </g>
                <g transform="matrix(0.776221,0,0,1.521,2760.73,49.9929)">
                    <path d="M754.352,245.61L556.117,556.155L499.962,500L754.352,245.61Z" style="fill:rgb(231,29,29);"/>
                </g>
                <g transform="matrix(-4.30889e-17,-1.521,-0.776221,8.44323e-17,3536.92,1570.93)">
                    <path d="M754.352,245.61L556.117,556.155L499.962,500L754.352,245.61Z" style="fill:rgb(253,235,235);"/>
                </g>
                <g transform="matrix(0.776221,0,0,1.521,2464.54,463.058)">
                    <path d="M627.157,482.814L881.585,228.424L825.391,172.269L627.157,482.814Z" style="fill:rgb(32,88,221);"/>
                </g>
            </g>
        </g>
    </g>
</svg>
