<?xml version="1.0" encoding="UTF-8" standalone="no"?>
<!DOCTYPE svg PUBLIC "-//W3C//DTD SVG 1.1//EN" "http://www.w3.org/Graphics/SVG/1.1/DTD/svg11.dtd">
<svg width="100%" height="100%" viewBox="0 0 4681 855" version="1.1" xmlns="http://www.w3.org/2000/svg" xmlns:xlink="http://www.w3.org/1999/xlink" xml:space="preserve" xmlns:serif="http://www.serif.com/" style="fill-rule:evenodd;clip-rule:evenodd;stroke-linecap:round;stroke-linejoin:round;stroke-miterlimit:1.5;">
    <rect id="Title" x="0" y="-0" width="4680.06" height="854.723" style="fill:rgb(13,28,54);fill-opacity:0;"/>
    <path d="M112.299,162.89L509.106,162.89L509.106,258.378L365.52,258.378L365.52,658.015L255.885,658.015L255.885,258.378L112.299,258.378L112.299,162.89Z" style="fill:rgb(7,16,31);fill-rule:nonzero;"/>
    <path d="M784.962,378.623L675.327,378.623C662.124,378.623 655.05,384.753 654.107,397.013L654.107,658.015L551.546,658.015L551.546,290.208L629.351,290.208L644.205,326.281C654.107,314.964 666.25,306.122 680.632,299.757C695.014,293.391 711.165,290.208 729.083,290.208L784.962,290.208L784.962,378.623Z" style="fill:rgb(7,16,31);fill-rule:nonzero;"/>
    <path d="M1057.28,658.015L1041.72,622.649C1021.92,646.226 993.858,658.015 957.548,658.015L924.304,658.015C890.824,658.015 863.946,647.877 843.67,627.6C823.393,607.324 813.255,580.445 813.255,546.966L813.255,546.258C813.255,512.778 823.393,485.9 843.67,465.624C863.946,445.347 890.824,435.209 924.304,435.209L957.548,435.209C972.638,435.209 986.549,437.566 999.28,442.282C1012.01,446.997 1023.09,453.363 1032.52,461.38L1032.52,399.843C1032.52,385.696 1025.45,378.623 1011.31,378.623L954.719,378.623C940.573,378.623 933.499,385.696 933.499,399.843L933.499,413.989L830.938,413.989L830.938,401.257C830.938,367.777 841.076,340.899 861.353,320.623C881.629,300.346 908.507,290.208 941.987,290.208L1024.74,290.208C1057.75,290.208 1084.39,300.346 1104.67,320.623C1124.95,340.899 1135.09,367.777 1135.09,401.257L1135.09,658.015L1057.28,658.015ZM1011.31,569.6C1025.45,569.6 1032.52,562.527 1032.52,548.38L1032.52,534.941C1031.11,522.681 1024.04,516.551 1011.31,516.551L937.036,516.551C922.89,516.551 915.816,523.624 915.816,537.77L915.816,548.38C915.816,562.527 922.89,569.6 937.036,569.6L1011.31,569.6Z" style="fill:rgb(7,16,31);fill-rule:nonzero;"/>
    <path d="M1219.96,290.208L1322.53,290.208L1322.53,658.015L1219.96,658.015L1219.96,290.208ZM1219.96,134.597L1322.53,134.597L1322.53,237.159L1219.96,237.159L1219.96,134.597Z" style="fill:rgb(7,16,31);fill-rule:nonzero;"/>
    <rect x="1407.4" y="134.597" width="102.562" height="523.418" style="fill:rgb(7,16,31);fill-rule:nonzero;"/>
    <path d="M1879.9,339.72L1879.9,279.598C1879.9,265.451 1872.82,258.378 1858.68,258.378L1725.7,258.378C1711.55,258.378 1704.48,265.451 1704.48,279.598L1704.48,541.307C1704.48,555.453 1711.55,562.527 1725.7,562.527L1858.68,562.527C1872.82,562.527 1879.9,555.453 1879.9,541.307L1879.9,481.185L1989.53,481.185L1989.53,546.966C1989.53,580.445 1979.39,607.324 1959.12,627.6C1938.84,647.877 1911.96,658.015 1878.48,658.015L1705.19,658.015C1672.18,658.015 1645.54,647.877 1625.26,627.6C1604.98,607.324 1594.85,580.445 1594.85,546.966L1594.85,273.939C1594.85,240.459 1604.98,213.581 1625.26,193.305C1645.54,173.028 1672.18,162.89 1705.19,162.89L1878.48,162.89C1911.96,162.89 1938.84,173.028 1959.12,193.305C1979.39,213.581 1989.53,240.459 1989.53,273.939L1989.53,339.72L1879.9,339.72Z" style="fill:rgb(7,16,31);fill-rule:nonzero;"/>
    <path d="M2696.85,658.015L2696.85,399.843C2696.85,385.696 2689.78,378.623 2675.63,378.623L2622.58,378.623C2609.38,378.623 2602.31,384.753 2601.37,397.013L2601.37,658.015L2498.8,658.015L2498.8,290.208L2576.61,290.208L2591.46,326.281C2601.37,314.964 2613.51,306.122 2627.89,299.757C2642.27,293.391 2658.42,290.208 2676.34,290.208L2688.37,290.208C2708.64,290.208 2726.56,294.098 2742.12,301.879C2757.68,309.659 2770.18,320.387 2779.61,334.062C2789.04,320.387 2801.66,309.659 2817.45,301.879C2833.25,294.098 2851.05,290.208 2870.85,290.208L2886.41,290.208C2919.89,290.208 2946.77,300.346 2967.05,320.623C2987.33,340.899 2997.47,367.777 2997.47,401.257L2997.47,658.015L2894.9,658.015L2894.9,399.843C2894.9,385.696 2887.83,378.623 2873.68,378.623L2820.63,378.623C2806.49,378.623 2799.41,385.696 2799.41,399.843L2799.41,658.015L2696.85,658.015Z" style="fill:rgb(7,16,31);fill-rule:nonzero;"/>
    <path d="M3082.34,290.208L3160.15,290.208L3175,326.281C3184.91,314.964 3197.05,306.122 3211.43,299.757C3225.81,293.391 3241.96,290.208 3259.88,290.208L3293.12,290.208C3326.61,290.208 3353.48,300.346 3373.76,320.623C3394.04,340.899 3404.18,367.777 3404.18,401.257L3404.18,546.966C3404.18,580.445 3394.04,607.324 3373.76,627.6C3353.48,647.877 3326.61,658.015 3293.12,658.015L3259.88,658.015C3229.7,658.015 3204.71,649.291 3184.91,631.844L3184.91,799.48L3082.34,799.48L3082.34,290.208ZM3301.61,399.843C3301.61,385.696 3294.54,378.623 3280.39,378.623L3206.12,378.623C3192.92,378.623 3185.85,384.753 3184.91,397.013L3184.91,548.38C3184.91,562.527 3191.98,569.6 3206.12,569.6L3280.39,569.6C3294.54,569.6 3301.61,562.527 3301.61,548.38L3301.61,399.843Z" style="fill:rgb(7,16,31);fill-rule:nonzero;"/>
    <path d="M3711.86,658.015L3696.3,622.649C3676.49,646.226 3648.44,658.015 3612.13,658.015L3578.88,658.015C3545.4,658.015 3518.53,647.877 3498.25,627.6C3477.97,607.324 3467.83,580.445 3467.83,546.966L3467.83,546.258C3467.83,512.778 3477.97,485.9 3498.25,465.624C3518.53,445.347 3545.4,435.209 3578.88,435.209L3612.13,435.209C3627.22,435.209 3641.13,437.566 3653.86,442.282C3666.59,446.997 3677.67,453.363 3687.1,461.38L3687.1,399.843C3687.1,385.696 3680.03,378.623 3665.88,378.623L3609.3,378.623C3595.15,378.623 3588.08,385.696 3588.08,399.843L3588.08,413.989L3485.52,413.989L3485.52,401.257C3485.52,367.777 3495.66,340.899 3515.93,320.623C3536.21,300.346 3563.09,290.208 3596.57,290.208L3679.32,290.208C3712.33,290.208 3738.97,300.346 3759.25,320.623C3779.53,340.899 3789.66,367.777 3789.66,401.257L3789.66,658.015L3711.86,658.015ZM3665.88,569.6C3680.03,569.6 3687.1,562.527 3687.1,548.38L3687.1,534.941C3685.69,522.681 3678.62,516.551 3665.88,516.551L3591.62,516.551C3577.47,516.551 3570.4,523.624 3570.4,537.77L3570.4,548.38C3570.4,562.527 3577.47,569.6 3591.62,569.6L3665.88,569.6Z" style="fill:rgb(7,16,31);fill-rule:nonzero;"/>
    <path d="M4078.96,433.087C4111.97,433.087 4138.61,443.225 4158.89,463.502C4179.16,483.778 4189.3,510.656 4189.3,544.136L4189.3,546.966C4189.3,580.445 4179.16,607.324 4158.89,627.6C4138.61,647.877 4111.97,658.015 4078.96,658.015L3978.52,658.015C3945.04,658.015 3918.16,647.877 3897.89,627.6C3877.61,607.324 3867.47,580.445 3867.47,546.966L3867.47,534.234L3970.03,534.234L3970.03,548.38C3970.03,562.527 3977.11,569.6 3991.25,569.6L4065.52,569.6C4079.67,569.6 4086.74,562.291 4086.74,547.673L4086.74,536.356C4086.74,521.738 4079.67,514.429 4065.52,514.429L3981.35,514.429C3948.34,514.429 3921.7,504.29 3901.42,484.014C3881.15,463.737 3871.01,436.859 3871.01,403.379L3871.01,401.257C3871.01,367.777 3881.15,340.899 3901.42,320.623C3921.7,300.346 3948.34,290.208 3981.35,290.208L4074.72,290.208C4108.2,290.208 4135.07,300.346 4155.35,320.623C4175.63,340.899 4185.77,367.777 4185.77,401.257L4185.77,413.989L4083.2,413.989L4083.2,399.843C4083.2,385.696 4076.13,378.623 4061.98,378.623L3994.79,378.623C3980.64,378.623 3973.57,385.696 3973.57,399.843L3973.57,411.867C3973.57,426.014 3980.64,433.087 3994.79,433.087L4078.96,433.087Z" style="fill:rgb(7,16,31);fill-rule:nonzero;"/>
    <path d="M4471.52,433.087C4504.53,433.087 4531.18,443.225 4551.45,463.502C4571.73,483.778 4581.87,510.656 4581.87,544.136L4581.87,546.966C4581.87,580.445 4571.73,607.324 4551.45,627.6C4531.18,647.877 4504.53,658.015 4471.52,658.015L4371.08,658.015C4337.6,658.015 4310.73,647.877 4290.45,627.6C4270.17,607.324 4260.03,580.445 4260.03,546.966L4260.03,534.234L4362.6,534.234L4362.6,548.38C4362.6,562.527 4369.67,569.6 4383.82,569.6L4458.09,569.6C4472.23,569.6 4479.3,562.291 4479.3,547.673L4479.3,536.356C4479.3,521.738 4472.23,514.429 4458.09,514.429L4373.91,514.429C4340.9,514.429 4314.26,504.29 4293.99,484.014C4273.71,463.737 4263.57,436.859 4263.57,403.379L4263.57,401.257C4263.57,367.777 4273.71,340.899 4293.99,320.623C4314.26,300.346 4340.9,290.208 4373.91,290.208L4467.28,290.208C4500.76,290.208 4527.64,300.346 4547.91,320.623C4568.19,340.899 4578.33,367.777 4578.33,401.257L4578.33,413.989L4475.77,413.989L4475.77,399.843C4475.77,385.696 4468.69,378.623 4454.55,378.623L4387.35,378.623C4373.21,378.623 4366.13,385.696 4366.13,399.843L4366.13,411.867C4366.13,426.014 4373.21,433.087 4387.35,433.087L4471.52,433.087Z" style="fill:rgb(7,16,31);fill-rule:nonzero;"/>
    <path d="M104.299,154.89L501.106,154.89L501.106,250.378L357.52,250.378L357.52,650.015L247.885,650.015L247.885,250.378L104.299,250.378L104.299,154.89Z" style="fill:white;fill-rule:nonzero;"/>
    <path d="M776.962,370.623L667.327,370.623C654.124,370.623 647.05,376.753 646.107,389.013L646.107,650.015L543.546,650.015L543.546,282.208L621.351,282.208L636.205,318.281C646.107,306.964 658.25,298.122 672.632,291.757C687.014,285.391 703.165,282.208 721.083,282.208L776.962,282.208L776.962,370.623Z" style="fill:white;fill-rule:nonzero;"/>
    <path d="M1049.28,650.015L1033.72,614.649C1013.92,638.226 985.858,650.015 949.548,650.015L916.304,650.015C882.824,650.015 855.946,639.877 835.67,619.6C815.393,599.324 805.255,572.445 805.255,538.966L805.255,538.258C805.255,504.778 815.393,477.9 835.67,457.624C855.946,437.347 882.824,427.209 916.304,427.209L949.548,427.209C964.638,427.209 978.549,429.566 991.28,434.282C1004.01,438.997 1015.09,445.363 1024.52,453.38L1024.52,391.843C1024.52,377.696 1017.45,370.623 1003.31,370.623L946.719,370.623C932.573,370.623 925.499,377.696 925.499,391.843L925.499,405.989L822.938,405.989L822.938,393.257C822.938,359.777 833.076,332.899 853.353,312.623C873.629,292.346 900.507,282.208 933.987,282.208L1016.74,282.208C1049.75,282.208 1076.39,292.346 1096.67,312.623C1116.95,332.899 1127.09,359.777 1127.09,393.257L1127.09,650.015L1049.28,650.015ZM1003.31,561.6C1017.45,561.6 1024.52,554.527 1024.52,540.38L1024.52,526.941C1023.11,514.681 1016.04,508.551 1003.31,508.551L929.036,508.551C914.89,508.551 907.816,515.624 907.816,529.77L907.816,540.38C907.816,554.527 914.89,561.6 929.036,561.6L1003.31,561.6Z" style="fill:white;fill-rule:nonzero;"/>
    <path d="M1211.96,282.208L1314.53,282.208L1314.53,650.015L1211.96,650.015L1211.96,282.208ZM1211.96,126.597L1314.53,126.597L1314.53,229.159L1211.96,229.159L1211.96,126.597Z" style="fill:white;fill-rule:nonzero;"/>
    <rect x="1399.4" y="126.597" width="102.562" height="523.418" style="fill:white;fill-rule:nonzero;"/>
    <path d="M1871.9,331.72L1871.9,271.598C1871.9,257.451 1864.82,250.378 1850.68,250.378L1717.7,250.378C1703.55,250.378 1696.48,257.451 1696.48,271.598L1696.48,533.307C1696.48,547.453 1703.55,554.527 1717.7,554.527L1850.68,554.527C1864.82,554.527 1871.9,547.453 1871.9,533.307L1871.9,473.185L1981.53,473.185L1981.53,538.966C1981.53,572.445 1971.39,599.324 1951.12,619.6C1930.84,639.877 1903.96,650.015 1870.48,650.015L1697.19,650.015C1664.18,650.015 1637.54,639.877 1617.26,619.6C1596.98,599.324 1586.85,572.445 1586.85,538.966L1586.85,265.939C1586.85,232.459 1596.98,205.581 1617.26,185.305C1637.54,165.028 1664.18,154.89 1697.19,154.89L1870.48,154.89C1903.96,154.89 1930.84,165.028 1951.12,185.305C1971.39,205.581 1981.53,232.459 1981.53,265.939L1981.53,331.72L1871.9,331.72Z" style="fill:white;fill-rule:nonzero;"/>
    <path d="M2688.85,650.015L2688.85,391.843C2688.85,377.696 2681.78,370.623 2667.63,370.623L2614.58,370.623C2601.38,370.623 2594.31,376.753 2593.37,389.013L2593.37,650.015L2490.8,650.015L2490.8,282.208L2568.61,282.208L2583.46,318.281C2593.37,306.964 2605.51,298.122 2619.89,291.757C2634.27,285.391 2650.42,282.208 2668.34,282.208L2680.37,282.208C2700.64,282.208 2718.56,286.098 2734.12,293.879C2749.68,301.659 2762.18,312.387 2771.61,326.062C2781.04,312.387 2793.66,301.659 2809.45,293.879C2825.25,286.098 2843.05,282.208 2862.85,282.208L2878.41,282.208C2911.89,282.208 2938.77,292.346 2959.05,312.623C2979.33,332.899 2989.47,359.777 2989.47,393.257L2989.47,650.015L2886.9,650.015L2886.9,391.843C2886.9,377.696 2879.83,370.623 2865.68,370.623L2812.63,370.623C2798.49,370.623 2791.41,377.696 2791.41,391.843L2791.41,650.015L2688.85,650.015Z" style="fill:white;fill-rule:nonzero;"/>
    <path d="M3074.34,282.208L3152.15,282.208L3167,318.281C3176.91,306.964 3189.05,298.122 3203.43,291.757C3217.81,285.391 3233.96,282.208 3251.88,282.208L3285.12,282.208C3318.61,282.208 3345.48,292.346 3365.76,312.623C3386.04,332.899 3396.18,359.777 3396.18,393.257L3396.18,538.966C3396.18,572.445 3386.04,599.324 3365.76,619.6C3345.48,639.877 3318.61,650.015 3285.12,650.015L3251.88,650.015C3221.7,650.015 3196.71,641.291 3176.91,623.844L3176.91,791.48L3074.34,791.48L3074.34,282.208ZM3293.61,391.843C3293.61,377.696 3286.54,370.623 3272.39,370.623L3198.12,370.623C3184.92,370.623 3177.85,376.753 3176.91,389.013L3176.91,540.38C3176.91,554.527 3183.98,561.6 3198.12,561.6L3272.39,561.6C3286.54,561.6 3293.61,554.527 3293.61,540.38L3293.61,391.843Z" style="fill:white;fill-rule:nonzero;"/>
    <path d="M3703.86,650.015L3688.3,614.649C3668.49,638.226 3640.44,650.015 3604.13,650.015L3570.88,650.015C3537.4,650.015 3510.53,639.877 3490.25,619.6C3469.97,599.324 3459.83,572.445 3459.83,538.966L3459.83,538.258C3459.83,504.778 3469.97,477.9 3490.25,457.624C3510.53,437.347 3537.4,427.209 3570.88,427.209L3604.13,427.209C3619.22,427.209 3633.13,429.566 3645.86,434.282C3658.59,438.997 3669.67,445.363 3679.1,453.38L3679.1,391.843C3679.1,377.696 3672.03,370.623 3657.88,370.623L3601.3,370.623C3587.15,370.623 3580.08,377.696 3580.08,391.843L3580.08,405.989L3477.52,405.989L3477.52,393.257C3477.52,359.777 3487.66,332.899 3507.93,312.623C3528.21,292.346 3555.09,282.208 3588.57,282.208L3671.32,282.208C3704.33,282.208 3730.97,292.346 3751.25,312.623C3771.53,332.899 3781.66,359.777 3781.66,393.257L3781.66,650.015L3703.86,650.015ZM3657.88,561.6C3672.03,561.6 3679.1,554.527 3679.1,540.38L3679.1,526.941C3677.69,514.681 3670.62,508.551 3657.88,508.551L3583.62,508.551C3569.47,508.551 3562.4,515.624 3562.4,529.77L3562.4,540.38C3562.4,554.527 3569.47,561.6 3583.62,561.6L3657.88,561.6Z" style="fill:white;fill-rule:nonzero;"/>
    <path d="M4070.96,425.087C4103.97,425.087 4130.61,435.225 4150.89,455.502C4171.16,475.778 4181.3,502.656 4181.3,536.136L4181.3,538.966C4181.3,572.445 4171.16,599.324 4150.89,619.6C4130.61,639.877 4103.97,650.015 4070.96,650.015L3970.52,650.015C3937.04,650.015 3910.16,639.877 3889.89,619.6C3869.61,599.324 3859.47,572.445 3859.47,538.966L3859.47,526.234L3962.03,526.234L3962.03,540.38C3962.03,554.527 3969.11,561.6 3983.25,561.6L4057.52,561.6C4071.67,561.6 4078.74,554.291 4078.74,539.673L4078.74,528.356C4078.74,513.738 4071.67,506.429 4057.52,506.429L3973.35,506.429C3940.34,506.429 3913.7,496.29 3893.42,476.014C3873.15,455.737 3863.01,428.859 3863.01,395.379L3863.01,393.257C3863.01,359.777 3873.15,332.899 3893.42,312.623C3913.7,292.346 3940.34,282.208 3973.35,282.208L4066.72,282.208C4100.2,282.208 4127.07,292.346 4147.35,312.623C4167.63,332.899 4177.77,359.777 4177.77,393.257L4177.77,405.989L4075.2,405.989L4075.2,391.843C4075.2,377.696 4068.13,370.623 4053.98,370.623L3986.79,370.623C3972.64,370.623 3965.57,377.696 3965.57,391.843L3965.57,403.867C3965.57,418.014 3972.64,425.087 3986.79,425.087L4070.96,425.087Z" style="fill:white;fill-rule:nonzero;"/>
    <path d="M4463.52,425.087C4496.53,425.087 4523.18,435.225 4543.45,455.502C4563.73,475.778 4573.87,502.656 4573.87,536.136L4573.87,538.966C4573.87,572.445 4563.73,599.324 4543.45,619.6C4523.18,639.877 4496.53,650.015 4463.52,650.015L4363.08,650.015C4329.6,650.015 4302.73,639.877 4282.45,619.6C4262.17,599.324 4252.03,572.445 4252.03,538.966L4252.03,526.234L4354.6,526.234L4354.6,540.38C4354.6,554.527 4361.67,561.6 4375.82,561.6L4450.09,561.6C4464.23,561.6 4471.3,554.291 4471.3,539.673L4471.3,528.356C4471.3,513.738 4464.23,506.429 4450.09,506.429L4365.91,506.429C4332.9,506.429 4306.26,496.29 4285.99,476.014C4265.71,455.737 4255.57,428.859 4255.57,395.379L4255.57,393.257C4255.57,359.777 4265.71,332.899 4285.99,312.623C4306.26,292.346 4332.9,282.208 4365.91,282.208L4459.28,282.208C4492.76,282.208 4519.64,292.346 4539.91,312.623C4560.19,332.899 4570.33,359.777 4570.33,393.257L4570.33,405.989L4467.77,405.989L4467.77,391.843C4467.77,377.696 4460.69,370.623 4446.55,370.623L4379.35,370.623C4365.21,370.623 4358.13,377.696 4358.13,391.843L4358.13,403.867C4358.13,418.014 4365.21,425.087 4379.35,425.087L4463.52,425.087Z" style="fill:white;fill-rule:nonzero;"/>
    <g>
        <circle cx="2252.11" cy="472.113" r="184.113" style="fill:none;stroke:rgb(7,16,31);stroke-width:55.83px;"/>
        <path d="M2356.19,368.033L2275.09,495.088L2148.03,576.192L2229.14,449.138L2356.19,368.033Z" style="fill:rgb(7,16,31);"/>
    </g>
    <g>
        <circle cx="2244.11" cy="464.113" r="184.113" style="fill:none;stroke:white;stroke-width:56.02px;"/>
        <path d="M2348.19,360.033L2267.09,487.088L2140.03,568.192L2221.14,441.138L2348.19,360.033Z" style="fill:rgb(236,241,252);"/>
        <path d="M2348.19,360.033L2267.09,487.088L2244.11,464.113L2348.19,360.033Z" style="fill:rgb(231,29,29);"/>
        <path d="M2348.19,360.033L2221.14,441.138L2244.11,464.113L2348.19,360.033Z" style="fill:rgb(253,235,235);"/>
        <path d="M2140.03,568.192L2244.13,464.113L2221.14,441.138L2140.03,568.192Z" style="fill:rgb(32,88,221);"/>
    </g>
</svg>
